<svg width="20" height="20" viewBox="0 0 20 20" fill="none" xmlns="http://www.w3.org/2000/svg">
<path fill-rule="evenodd" clip-rule="evenodd" d="M1.36131 12.6154C-0.178938 6.65421 4.27606 1.30516 9.97907 1.30516C10.7734 1.30516 11.5958 1.4113 12.434 1.6293C15.4797 2.43986 17.8667 4.89389 18.6224 7.95086C19.1808 10.2187 18.8774 12.3859 17.9734 14.1982C17.8321 14.4809 17.7863 14.8134 17.8731 15.131C17.8732 15.1313 17.8733 15.1317 17.8734 15.1321L18.8971 18.95L15.1829 17.9565C15.1823 17.9563 15.1817 17.9562 15.1812 17.956C15.0663 17.9243 14.9547 17.9126 14.8491 17.9126C14.6259 17.9126 14.4046 17.9739 14.2111 18.0793C12.9477 18.7598 11.5119 19.1544 9.97907 19.1544C9.26505 19.1544 8.52887 19.0694 7.77877 18.8861L7.77824 18.886C6.41707 18.5556 4.98759 17.6799 3.80354 16.5254C2.61937 15.3708 1.71202 13.968 1.36131 12.6154ZM9.97907 2.58673C7.59681 2.58673 5.39381 3.66701 3.93207 5.55545C2.4729 7.44056 1.98439 9.89409 2.60314 12.293C2.89146 13.4092 3.67247 14.6077 4.69419 15.6053C5.71552 16.6025 6.94061 17.3629 8.07872 17.6398C8.71169 17.7927 9.35082 17.8728 9.97907 17.8728C11.2544 17.8728 12.4691 17.565 13.5975 16.9565C13.9832 16.7484 14.4166 16.6354 14.8491 16.6354C15.0762 16.6354 15.2965 16.6664 15.5093 16.7222L15.5109 16.7226L17.086 17.1428L16.6356 15.4617C16.4707 14.8486 16.5439 14.1981 16.8289 13.6281C17.6511 11.9793 17.8429 10.1264 17.3807 8.26059C16.7266 5.62741 14.706 3.56194 12.1061 2.87088L12.105 2.87057C11.397 2.6798 10.6813 2.58673 9.97907 2.58673Z" fill="#333333"/>
<path fill-rule="evenodd" clip-rule="evenodd" d="M9.97907 0.593628C3.8209 0.593628 -0.986781 6.37213 0.672426 12.7935C1.06418 14.3046 2.05714 15.8164 3.30681 17.0349C4.5565 18.2534 6.09431 19.2094 7.60989 19.5773C8.41536 19.7741 9.20824 19.8659 9.97907 19.8659C11.6365 19.8659 13.1879 19.4387 14.5494 18.7053L14.551 18.7044C14.649 18.651 14.7543 18.6241 14.8491 18.6241C14.902 18.6241 14.9489 18.63 14.9925 18.6421L18.9222 19.6933L18.9334 19.6955L18.9365 19.6961C18.9527 19.6995 19.009 19.7112 19.065 19.7112C19.4368 19.7112 19.7397 19.361 19.6394 18.9708L18.5601 14.9457L18.5596 14.9437C18.5231 14.8108 18.5393 14.6574 18.61 14.5161C19.5885 12.5546 19.9125 10.2141 19.3131 7.7801C18.4957 4.47368 15.9159 1.81926 12.616 0.941441L12.6141 0.940954C11.7203 0.708365 10.8373 0.593628 9.97907 0.593628ZM9.97907 1.30516C4.27606 1.30516 -0.178938 6.65421 1.36131 12.6154C1.71202 13.968 2.61937 15.3708 3.80354 16.5254C4.98759 17.6799 6.41707 18.5556 7.77824 18.886L7.77877 18.8861C8.52887 19.0694 9.26505 19.1544 9.97907 19.1544C11.5119 19.1544 12.9477 18.7598 14.2111 18.0793C14.4046 17.9739 14.6259 17.9126 14.8491 17.9126C14.9547 17.9126 15.0663 17.9243 15.1812 17.956L15.1829 17.9565L18.8971 18.95L17.8734 15.1321L17.8731 15.131C17.7863 14.8134 17.8321 14.4809 17.9734 14.1982C18.8774 12.3859 19.1808 10.2187 18.6224 7.95086C17.8667 4.89389 15.4797 2.43986 12.434 1.6293C11.5958 1.4113 10.7734 1.30516 9.97907 1.30516Z" fill="#333333"/>
</svg>
