<svg width="84" height="84" viewBox="0 0 84 84" fill="none" xmlns="http://www.w3.org/2000/svg">
<mask id="path-1-outside-1_103_5" maskUnits="userSpaceOnUse" x="-0.583435" y="0.0720978" width="84" height="84" fill="black">
<rect fill="white" x="-0.583435" y="0.0720978" width="84" height="84"/>
<path fill-rule="evenodd" clip-rule="evenodd" d="M66.5558 64.5012C71.8012 58.618 74.9888 50.8604 74.9888 42.3582C74.9888 23.9748 60.0861 9.0721 41.7027 9.0721C23.3193 9.0721 8.41656 23.9748 8.41656 42.3582C8.41656 60.7417 23.3193 75.6444 41.7027 75.6444C48.0264 75.6444 53.9383 73.8809 58.9734 70.819L68.3421 72.8286L66.5558 64.5012Z"/>
</mask>
<path d="M66.5558 64.5012L60.3492 58.9675L57.5402 62.1181L58.4255 66.2452L66.5558 64.5012ZM58.9734 70.819L60.7174 62.6886L57.481 61.9944L54.6528 63.7142L58.9734 70.819ZM68.3421 72.8286L66.5981 80.959L79.169 83.6555L76.4725 71.0846L68.3421 72.8286ZM66.6735 42.3582C66.6735 48.7418 64.289 54.5486 60.3492 58.9675L72.7625 70.0349C79.3134 62.6874 83.3041 52.9789 83.3041 42.3582H66.6735ZM41.7027 17.3874C55.4937 17.3874 66.6735 28.5672 66.6735 42.3582H83.3041C83.3041 19.3824 64.6785 0.756783 41.7027 0.756783V17.3874ZM16.7319 42.3582C16.7319 28.5672 27.9117 17.3874 41.7027 17.3874V0.756783C18.7269 0.756783 0.10125 19.3824 0.10125 42.3582H16.7319ZM41.7027 67.329C27.9117 67.329 16.7319 56.1492 16.7319 42.3582H0.10125C0.10125 65.3341 18.7269 83.9597 41.7027 83.9597V67.329ZM54.6528 63.7142C50.8829 66.0068 46.4599 67.329 41.7027 67.329V83.9597C49.593 83.9597 56.9937 81.755 63.2939 77.9237L54.6528 63.7142ZM57.2294 78.9493L66.5981 80.959L70.0861 64.6982L60.7174 62.6886L57.2294 78.9493ZM76.4725 71.0846L74.6862 62.7572L58.4255 66.2452L60.2117 74.5726L76.4725 71.0846Z" fill="black" mask="url(#path-1-outside-1_103_5)"/>
</svg>
