<svg width="68" height="17" viewBox="0 0 68 17" fill="none" xmlns="http://www.w3.org/2000/svg">
<path fill-rule="evenodd" clip-rule="evenodd" d="M8.94595 16.9279C13.5384 16.9279 17.2613 13.205 17.2613 8.61263C17.2613 4.0202 13.5384 0.29731 8.94595 0.29731C4.35352 0.29731 0.63063 4.0202 0.63063 8.61263C0.63063 13.205 4.35352 16.9279 8.94595 16.9279ZM42.2072 8.61263C42.2072 13.205 38.4843 16.9279 33.8919 16.9279C29.2995 16.9279 25.5766 13.205 25.5766 8.61263C25.5766 4.0202 29.2995 0.29731 33.8919 0.29731C38.4843 0.29731 42.2072 4.0202 42.2072 8.61263ZM67.1532 8.61263C67.1532 13.205 63.4303 16.9279 58.8378 16.9279C54.2454 16.9279 50.5225 13.205 50.5225 8.61263C50.5225 4.0202 54.2454 0.29731 58.8378 0.29731C63.4303 0.29731 67.1532 4.0202 67.1532 8.61263Z" fill="black"/>
</svg>
